<svg width="980" height="760" viewBox="0 0 980 760" fill="none" xmlns="http://www.w3.org/2000/svg" role="img" aria-label="Técnico especializado em climatização">
  <rect width="980" height="760" rx="40" fill="#F6F8FB"/>
  <rect x="58" y="72" width="864" height="540" rx="34" fill="url(#room)"/>
  <path d="M58 510C244 464 430 468 612 508C728 534 834 524 922 492V612C922 630.778 906.778 646 888 646H92C73.2223 646 58 630.778 58 612V510Z" fill="#EAF1F8"/>
  <rect x="122" y="122" width="515" height="102" rx="22" fill="white" stroke="#D6E0EA" stroke-width="3"/>
  <rect x="162" y="158" width="325" height="16" rx="8" fill="#C9D9EA"/>
  <rect x="162" y="186" width="420" height="12" rx="6" fill="#E9EEF4"/>
  <path d="M169 224H594C584 260 556 280 518 284H245C205 280 180 260 169 224Z" fill="#DCE8F2"/>
  <path d="M672 258C705 246 734 260 748 292L802 419C816 451 800 488 768 501C736 515 699 500 685 468L631 341C617 309 640 270 672 258Z" fill="#0D2B5C"/>
  <path d="M648 326C679 315 711 330 724 361L776 486C788 516 774 551 744 563L605 619C574 631 539 616 527 586L475 461C462 430 477 396 508 383L648 326Z" fill="#12447F"/>
  <path d="M560 376L701 520" stroke="#F4B400" stroke-width="10" stroke-linecap="round"/>
  <circle cx="707" cy="206" r="70" fill="#E2B792"/>
  <path d="M638 203C648 142 699 101 754 116C789 126 808 154 813 184C771 168 730 170 693 191C675 202 659 206 638 203Z" fill="#0D2B5C"/>
  <path d="M758 238C775 229 785 205 780 185C801 192 813 209 810 230C807 251 785 266 758 238Z" fill="#E2B792"/>
  <path d="M558 363L382 295C361 287 338 299 332 321C327 339 336 358 353 366L520 443L558 363Z" fill="#E2B792"/>
  <path d="M796 420L880 326C896 308 894 281 876 266C859 251 832 254 817 272L735 365L796 420Z" fill="#E2B792"/>
  <path d="M306 292L341 308L328 350L290 340C269 334 259 311 270 294C277 285 292 286 306 292Z" fill="#0D2B5C"/>
  <rect x="80" y="596" width="840" height="92" rx="24" fill="#092B5C"/>
  <text x="124" y="643" font-family="Montserrat, Arial, sans-serif" font-size="25" font-weight="800" fill="white">CLIMATIZAÇÃO PROFISSIONAL</text>
  <text x="124" y="674" font-family="Montserrat, Arial, sans-serif" font-size="18" font-weight="600" fill="#B8CEE8">Instalação, manutenção e higienização com padrão premium.</text>
  <circle cx="831" cy="642" r="28" fill="#F4B400"/>
  <path d="M817 642H845M835 632L845 642L835 652" stroke="#0D2B5C" stroke-width="6" stroke-linecap="round" stroke-linejoin="round"/>
  <defs>
    <linearGradient id="room" x1="66" y1="82" x2="865" y2="603" gradientUnits="userSpaceOnUse">
      <stop stop-color="#FFFFFF"/>
      <stop offset="0.53" stop-color="#EEF5FB"/>
      <stop offset="1" stop-color="#CFE6F8"/>
    </linearGradient>
  </defs>
</svg>
